<svg viewBox="0 0 130 24" xmlns="http://www.w3.org/2000/svg"><g fill="#fafafa"><path d="m23.7 1.4-.7 1.1c4.8 2 6.7 5.5 6.7 9.4s-.5 3.6-1.5 3.6h-12.5c-1.7 0-2.2-.6-1.4-2.1 1.4-2.7 5.5-7.9 8-11 .4-.5.7-1.2-.7-1.5-1.4-.4-3.6-.5-5.4-.5-9.5-.1-16.1 5-16.1 11.6s5.7 11.7 16 11.7 10.1-1.3 13.3-4.9h-2.7c-3.1 2.8-7.1 3.4-10.5 3.4-8.3 0-13.5-4.3-13.5-10.2s5.8-10.4 13.3-10.4 1.2.2.2 1.4c-1.9 2.4-5.3 7.1-6.9 9.8-1.7 3 0 5.4 3.9 5.4h15.7c1 0 1.5-.6 2.1-1.6.5-.8 1.2-2.4 1.2-4.6 0-4.5-3.3-8.5-8.4-10.6"/><path d="m72.8 15.9h-14.9c.2-1.2.8-2.5 2.8-2.5h9.2v-2.3h-12.3c.2-.9 1.2-2.3 3.4-2.3h9.8v-1.3l7 5.1-5 3.2zm53.1-4.8h-10.6c.3-1.4 1.4-2.3 3.4-2.3h10.2v-2.3h-10.8c-6.2 0-7.6 4.4-7.6 6.9h13.2c1.8 0 1.8 2.4 0 2.4h-14.5v-9.2h-4.4v9.3h-7.3c-1.9 0-2.8-.9-2.8-2.4v-6.9h-7l-6.3 4-5.4-3.9h-15.6c-4.5 0-7.7 2.6-8.1 5.9h2.9c-1.2.8-2.1 2-2.6 3.4h-9.2c-1.7 0-2.5-.9-2.5-2.6v-6.7h-4.4v5.7c0 3.6 2 5.9 6.4 5.9h30.7l6.3-4 5.4 4h6.5l-8.4-6.2 6.8-4.3v6.5c0 2 2.6 3.9 5 3.9h30.7c5.3 0 5.3-7 0-7"/></g></svg>